<svg viewBox="0 0 200 200" width="200" height="200" role="img" xmlns="http://www.w3.org/2000/svg">
  <title>SRE-GPT AI Agent Logo</title>
  <defs>
    <linearGradient id="bgGrad" x1="0" y1="0" x2="1" y2="1">
      <stop offset="0%" stop-color="#0B1220"/>
      <stop offset="100%" stop-color="#0F172A"/>
    </linearGradient>
    <linearGradient id="cyanPurple" x1="0" y1="0" x2="1" y2="1">
      <stop offset="0%" stop-color="#06B6D4"/>
      <stop offset="100%" stop-color="#7C3AED"/>
    </linearGradient>
  </defs>

  <!-- Background -->
  <rect x="0" y="0" width="200" height="200" rx="32" fill="url(#bgGrad)"/>
  <rect x="0" y="0" width="200" height="200" rx="32" fill="none" stroke="url(#cyanPurple)" stroke-width="1.5"/>

  <!-- Outer ring -->
  <circle cx="100" cy="95" r="65" fill="none" stroke="#06B6D4" stroke-width="0.8" stroke-opacity="0.2"/>

  <!-- Neural lines -->
  <line x1="100" y1="95" x2="100" y2="38" stroke="#06B6D4" stroke-width="0.8" stroke-opacity="0.5"/>
  <line x1="100" y1="95" x2="149" y2="63" stroke="#06B6D4" stroke-width="0.8" stroke-opacity="0.4"/>
  <line x1="100" y1="95" x2="149" y2="127" stroke="#7C3AED" stroke-width="0.8" stroke-opacity="0.4"/>
  <line x1="100" y1="95" x2="100" y2="152" stroke="#7C3AED" stroke-width="0.8" stroke-opacity="0.5"/>
  <line x1="100" y1="95" x2="51" y2="127" stroke="#7C3AED" stroke-width="0.8" stroke-opacity="0.4"/>
  <line x1="100" y1="95" x2="51" y2="63" stroke="#06B6D4" stroke-width="0.8" stroke-opacity="0.4"/>

  <!-- Cross connections -->
  <line x1="100" y1="38" x2="149" y2="63" stroke="#06B6D4" stroke-width="0.5" stroke-opacity="0.2"/>
  <line x1="149" y1="63" x2="149" y2="127" stroke="#06B6D4" stroke-width="0.5" stroke-opacity="0.2"/>
  <line x1="149" y1="127" x2="100" y2="152" stroke="#7C3AED" stroke-width="0.5" stroke-opacity="0.2"/>
  <line x1="100" y1="152" x2="51" y2="127" stroke="#7C3AED" stroke-width="0.5" stroke-opacity="0.2"/>
  <line x1="51" y1="127" x2="51" y2="63" stroke="#7C3AED" stroke-width="0.5" stroke-opacity="0.2"/>
  <line x1="51" y1="63" x2="100" y2="38" stroke="#06B6D4" stroke-width="0.5" stroke-opacity="0.2"/>

  <!-- Outer nodes -->
  <circle cx="100" cy="38" r="4" fill="#06B6D4" fill-opacity="0.9"/>
  <circle cx="149" cy="63" r="3" fill="#06B6D4" fill-opacity="0.7"/>
  <circle cx="149" cy="127" r="3" fill="#7C3AED" fill-opacity="0.7"/>
  <circle cx="100" cy="152" r="4" fill="#7C3AED" fill-opacity="0.9"/>
  <circle cx="51" cy="127" r="3" fill="#7C3AED" fill-opacity="0.7"/>
  <circle cx="51" cy="63" r="3" fill="#06B6D4" fill-opacity="0.7"/>

  <!-- Center core -->
  <circle cx="100" cy="95" r="26" fill="#0B1220"/>
  <circle cx="100" cy="95" r="26" fill="none" stroke="url(#cyanPurple)" stroke-width="1.5"/>
  <circle cx="100" cy="95" r="18" fill="url(#cyanPurple)" fill-opacity="0.15"/>
  <circle cx="100" cy="95" r="11" fill="url(#cyanPurple)" fill-opacity="0.3"/>
  <circle cx="100" cy="95" r="5" fill="url(#cyanPurple)"/>
  <circle cx="100" cy="95" r="2.5" fill="white" fill-opacity="0.9"/>

  <!-- Activity bars -->
  <rect x="62" y="172" width="3" height="9" rx="1" fill="#06B6D4" fill-opacity="0.7"/>
  <rect x="68" y="169" width="3" height="12" rx="1" fill="#06B6D4" fill-opacity="0.9"/>
  <rect x="74" y="171" width="3" height="10" rx="1" fill="#06B6D4" fill-opacity="0.8"/>
  <rect x="80" y="167" width="3" height="14" rx="1" fill="#7C3AED" fill-opacity="0.9"/>
  <rect x="86" y="170" width="3" height="11" rx="1" fill="#7C3AED" fill-opacity="0.7"/>
  <rect x="92" y="165" width="3" height="16" rx="1" fill="#7C3AED" fill-opacity="0.9"/>
  <rect x="98" y="169" width="3" height="12" rx="1" fill="#06B6D4" fill-opacity="0.8"/>
  <rect x="104" y="166" width="3" height="15" rx="1" fill="#06B6D4" fill-opacity="0.9"/>
  <rect x="110" y="171" width="3" height="10" rx="1" fill="#06B6D4" fill-opacity="0.7"/>
  <rect x="116" y="168" width="3" height="13" rx="1" fill="#7C3AED" fill-opacity="0.8"/>
  <rect x="122" y="172" width="3" height="9" rx="1" fill="#7C3AED" fill-opacity="0.6"/>
  <rect x="128" y="170" width="3" height="11" rx="1" fill="#7C3AED" fill-opacity="0.7"/>
  <rect x="134" y="167" width="3" height="14" rx="1" fill="#06B6D4" fill-opacity="0.8"/>
</svg>